<?xml version="1.0" encoding="UTF-8" standalone="no"?>
<!-- Created with Inkscape (http://www.inkscape.org/) -->

<svg
   xmlns:dc="http://purl.org/dc/elements/1.1/"
   xmlns:cc="http://creativecommons.org/ns#"
   xmlns:rdf="http://www.w3.org/1999/02/22-rdf-syntax-ns#"
   xmlns:svg="http://www.w3.org/2000/svg"
   xmlns="http://www.w3.org/2000/svg"
   xmlns:sodipodi="http://sodipodi.sourceforge.net/DTD/sodipodi-0.dtd"
   xmlns:inkscape="http://www.inkscape.org/namespaces/inkscape"
   width="116.24329mm"
   height="62.788628mm"
   viewBox="0 0 116.24329 62.788628"
   version="1.1"
   id="svg8"
   inkscape:version="0.92.1 r15371"
   sodipodi:docname="testBirdie.svg">
  <defs
     id="defs2" />
  <sodipodi:namedview
     id="base"
     pagecolor="#ffffff"
     bordercolor="#666666"
     borderopacity="1.0"
     inkscape:pageopacity="0.0"
     inkscape:pageshadow="2"
     inkscape:zoom="0.90097656"
     inkscape:cx="-26.676155"
     inkscape:cy="208.35968"
     inkscape:document-units="mm"
     inkscape:current-layer="layer1"
     showgrid="false"
     inkscape:object-paths="false"
     inkscape:snap-bbox="true"
     inkscape:object-nodes="true"
     inkscape:snap-others="false"
     inkscape:snap-to-guides="false"
     fit-margin-top="0"
     fit-margin-left="0"
     fit-margin-right="0"
     fit-margin-bottom="0"
     inkscape:window-width="1440"
     inkscape:window-height="838"
     inkscape:window-x="-8"
     inkscape:window-y="-8"
     inkscape:window-maximized="1" />
  <metadata
     id="metadata5">
    <rdf:RDF>
      <cc:Work
         rdf:about="">
        <dc:format>image/svg+xml</dc:format>
        <dc:type
           rdf:resource="http://purl.org/dc/dcmitype/StillImage" />
        <dc:title></dc:title>
      </cc:Work>
    </rdf:RDF>
  </metadata>
  <g
     inkscape:label="Layer 1"
     inkscape:groupmode="layer"
     id="layer1"
     transform="translate(-63.996537,-70.694122)">
    <path
       style="fill:#000000;fill-opacity:1;fill-rule:nonzero;stroke:none;stroke-width:0.26458332"
       id="path4531"
       d="m 74.742732,100.4883 c 12.575082,-5.936788 2.591869,-1.045666 -1.662845,0.77398 10.422281,-4.898396 6.98156,-3.841796 5.117113,-2.11146 -0.0545,0.03649 -0.112879,0.06777 -0.16351,0.109476 -0.136308,0.112279 -0.180046,0.204005 -0.324546,0.309843 -0.18025,0.132022 -0.32675,0.173043 -0.484756,0.341215 -0.354335,0.302606 -0.609703,0.705196 -0.859944,1.094146 -0.271486,0.32341 -0.522343,0.6755 -0.712054,1.05406 -0.165434,0.49088 -0.411549,0.9517 -0.653119,1.40883 -0.233854,0.52299 -0.549426,1.00349 -0.7938,1.52011 -0.297423,0.40096 -0.398436,0.87474 -0.537128,1.34244 -0.132281,0.50108 -0.275799,1.0057 -0.494956,1.47653 -0.249066,0.45029 -0.313209,0.95382 -0.353465,1.45826 -0.03345,0.63685 -0.02683,1.27493 -0.02434,1.9124 0.0036,0.58009 -0.02066,1.15832 0.06653,1.73313 0.08179,0.51994 0.279918,1.01735 0.481536,1.50165 0.274482,0.72483 0.549077,1.44935 0.819584,2.1758 0.26366,0.61753 0.501068,1.24601 0.732864,1.87616 0.261737,0.52935 0.605981,1.00376 0.894326,1.51858 0.303927,0.39275 0.624713,0.76909 0.941811,1.15256 0.453636,0.41334 0.848614,0.88818 1.267291,1.33686 0.514363,0.49375 0.993658,1.01927 1.494491,1.52929 0.472813,0.49035 0.866658,1.03904 1.424471,1.43985 0.481727,0.36373 0.931157,0.77578 1.486956,1.02623 0.495827,0.14651 0.917781,0.45264 1.411002,0.61034 0.394375,0.20605 0.849601,0.22721 1.251513,0.4106 0.203454,0.0928 0.392475,0.2146 0.591357,0.31687 0.576414,0.20984 1.146149,0.43298 1.727817,0.631 0.635002,0.3143 1.329968,0.45871 2.010936,0.63628 0.621361,0.15325 1.260962,0.18306 1.897756,0.19769 0.588166,0.007 1.176401,0.003 1.764588,5.2e-4 0.677183,-0.059 1.328822,0.0777 1.993151,0.17824 0.746655,0.0327 1.472351,0.18026 2.209279,0.2902 0.727641,0.0942 1.461746,0.11196 2.194454,0.12006 0.609165,0.003 1.218335,-5.3e-4 1.827495,-0.002 0.61174,-0.004 1.22344,7.9e-4 1.83516,0.003 0.6623,0.002 1.32459,-0.006 1.98686,-2e-5 0.72253,2.6e-4 1.44503,5.2e-4 2.16754,0.006 0.76965,-0.003 1.53929,-2e-5 2.30894,-0.003 0.45703,-0.0416 0.92797,0.0448 1.3838,-0.002 0.20552,-0.0211 0.40313,-0.0907 0.60501,-0.13459 0.63047,-0.14963 1.25267,-0.33514 1.87625,-0.52131 0.72153,-0.16085 1.50252,-0.22269 2.16932,-0.54853 0.84144,-0.32646 1.70425,-0.37359 2.55134,-0.69153 0.78153,-0.38576 1.61507,-0.6446 2.42827,-0.95466 0.12727,-0.0413 0.25453,-0.0826 0.38179,-0.12387 0.12302,-0.0319 0.24806,-0.0569 0.36906,-0.0958 0.11405,-0.0366 0.44355,-0.18079 0.33487,-0.13041 -10.41509,4.82818 -7.45371,3.55248 -5.40064,2.45354 0.0876,-0.0403 0.17514,-0.0806 0.26271,-0.12084 2.15609,-1.01013 4.3061,-2.03335 6.46828,-3.03039 0.21314,-0.0983 0.35033,-0.0752 0.57183,-0.13997 0.18833,-0.055 0.3686,-0.13541 0.55666,-0.19137 0.078,-0.0492 0.15324,-0.1031 0.23402,-0.1476 0.38514,-0.21216 0.0929,-0.027 0.49392,-0.19589 0.0824,-0.0347 0.3186,-0.16237 0.23748,-0.12477 -1.97317,0.91447 -7.89072,3.66194 -5.91386,2.7555 2.17569,-0.99761 4.34024,-2.01934 6.51036,-3.02901 -14.5028,6.74764 -0.64405,0.30162 0.64348,-0.30595 1.95037,-0.92036 -3.90857,1.82409 -5.86517,2.73115 -0.12133,0.0562 0.24019,-0.11769 0.35921,-0.17866 0.32391,-0.16589 0.43242,-0.22951 0.7556,-0.40846 0.68878,-0.35661 1.36908,-0.72956 2.05548,-1.0909 0.5511,-0.35976 1.08652,-0.74096 1.64243,-1.09427 0.58238,-0.41418 1.17339,-0.81595 1.73587,-1.25738 0.59948,-0.42284 1.1855,-0.86176 1.76758,-1.3076 0.49568,-0.42506 0.97998,-0.85465 1.51251,-1.23434 0.7162,-0.51265 1.43099,-1.02684 2.15524,-1.52812 0.6806,-0.46629 1.3102,-0.9837 1.83887,-1.6168 0.44716,-0.62563 0.93626,-1.21692 1.42682,-1.80835 0.45858,-0.51476 0.85527,-1.07638 1.26296,-1.63004 0.40592,-0.51665 0.7819,-1.05566 1.15655,-1.59511 0.69843,-0.86137 1.39625,-1.72593 2.12622,-2.56124 0.73786,-0.79238 1.51907,-1.5425 2.21899,-2.36957 1.92394,-2.35065 4.61965,-2.7659 7.60697,-4.16338 0.62797,-0.22314 1.29654,-0.34306 1.91093,-0.596 0.10451,-0.036 0.20683,-0.0791 0.31354,-0.10788 0.11316,-0.0306 0.23166,-0.0386 0.34466,-0.0698 0.5049,-0.13934 0.96112,-0.41088 1.43561,-0.62378 0.80184,-0.29849 1.61932,-0.57371 2.41026,-0.90134 0.80761,-0.38566 1.48804,-0.50044 2.36937,-0.59784 0.79188,-0.20874 1.60584,-0.29301 2.42053,-0.34772 0.1182,-0.005 0.23639,-0.0108 0.35458,-0.0163 0,0 -5.87367,3.64846 -5.87367,3.64846 v 0 c -0.11333,0.009 -0.22666,0.0172 -0.34,0.0258 -0.79803,0.0803 -1.58203,0.23268 -2.37205,0.36724 -0.80142,0.14628 -1.54756,0.42893 -2.30088,0.73408 -0.80595,0.28233 -1.59613,0.60946 -2.3862,0.93227 -0.69815,0.31299 -1.42457,0.52572 -2.15146,0.75965 -0.65068,0.17314 -1.29049,0.40041 -1.9131,0.6554 1.9941,-0.94093 3.99105,-1.87584 5.98229,-2.82279 0.0782,-0.0372 -0.16535,0.0539 -0.24254,0.0932 -0.3952,0.2012 -0.71075,0.57086 -1.04904,0.84706 -0.70554,0.85785 -1.47439,1.65959 -2.28899,2.41534 -0.71551,0.79201 -1.34162,1.64726 -2.03541,2.45726 -0.39642,0.52856 -0.74753,1.08786 -1.13569,1.62246 -0.45816,0.53169 -0.80326,1.13502 -1.28234,1.65188 -0.49018,0.58956 -1.01968,1.14916 -1.42961,1.79798 -0.23786,0.30674 -0.46271,0.67716 -0.74137,0.94768 -0.32316,0.31372 -0.72737,0.56497 -1.07556,0.84925 -0.67967,0.53022 -1.41367,0.99134 -2.10373,1.50896 -0.51807,0.40098 -1.10169,0.71898 -1.53155,1.22522 -0.58012,0.45569 -1.15132,0.9071 -1.75605,1.32996 -0.59476,0.39112 -1.13145,0.87296 -1.72303,1.26908 -0.53476,0.3966 -1.13559,0.69211 -1.63902,1.13195 -0.64932,0.45212 -1.39698,0.73754 -2.06745,1.15747 -0.38206,0.16817 -0.7107,0.4003 -1.08639,0.57782 -21.55607,10.18546 14.41833,-6.80999 -7.15625,3.35481 1.96049,-0.91613 7.83762,-3.67378 5.88147,-2.74839 -2.17721,1.02997 -4.95533,2.52168 -7.50038,3.43647 -0.27658,0.0948 -0.56041,0.16525 -0.82837,0.28347 -0.0861,0.038 -0.33936,0.16266 -0.25415,0.12278 5.99273,-2.80497 7.84787,-3.86683 5.68932,-2.64146 -0.83314,0.33758 0.32488,-0.144 -0.53567,0.2569 -2.75182,1.28199 -4.89651,2.5073 -7.56344,3.35496 -0.82289,0.28399 -1.61222,0.65658 -2.43979,0.9278 -0.85448,0.22341 -1.73265,0.36147 -2.54952,0.71605 -0.7362,0.17148 -1.47568,0.33197 -2.20446,0.53068 -0.63595,0.1871 -1.28084,0.35995 -1.93739,0.45363 -0.67223,0.0698 -1.35061,0.0196 -2.02553,0.0306 -0.76688,-0.003 -1.53375,4e-5 -2.30063,-0.003 -0.72857,0.005 -1.457134,0.005 -2.185723,0.006 -0.662347,0.006 -1.324705,-0.002 -1.987068,5.3e-4 -0.616733,0.003 -1.233445,0.009 -1.850208,0.007 -0.608586,-2.2e-4 -1.217358,-5e-5 -1.825635,-0.0222 -0.744403,-0.0327 -1.488231,-0.0881 -2.224752,-0.20513 -0.737809,-0.12135 -1.480346,-0.18077 -2.221621,-0.2768 -0.649441,-0.0953 -1.29667,-0.10405 -1.952625,-0.0815 -0.593432,1.2e-4 -1.187426,0.002 -1.780051,-0.0333 -0.660765,-0.0506 -1.31704,-0.14422 -1.953088,-0.33743 -0.692327,-0.19462 -1.38218,-0.38276 -2.040834,-0.67813 -0.601433,-0.21879 -1.221457,-0.39802 -1.788261,-0.70094 -0.581329,-0.29063 -1.218933,-0.41985 -1.820918,-0.66227 -0.487651,-0.22114 -0.967443,-0.46046 -1.449943,-0.69218 -0.537482,-0.34261 -1.031089,-0.74528 -1.53058,-1.13992 -0.529442,-0.46549 -0.959371,-1.01484 -1.451689,-1.51665 -0.503497,-0.51029 -0.979673,-1.04595 -1.49854,-1.541 -0.437295,-0.45229 -0.868875,-0.91006 -1.310182,-1.35846 -0.354023,-0.40645 -0.707691,-0.81537 -1.000601,-1.26927 -0.308539,-0.53775 -0.647674,-1.05714 -0.909005,-1.62075 -0.259964,-0.62639 -0.473155,-1.2696 -0.73932,-1.89338 -0.249791,-0.71398 -0.498771,-1.42788 -0.809136,-2.1185 -0.259421,-0.52556 -0.468775,-1.08481 -0.564718,-1.66467 -0.109316,-0.61141 -0.131104,-1.21711 -0.107133,-1.83858 5.29e-4,-0.64988 0.0013,-1.29984 0.01635,-1.94958 0.01537,-0.57137 0.01794,-1.15305 0.222983,-1.69568 0.211492,-0.44572 0.451721,-0.88671 0.552093,-1.37573 0.135983,-0.50841 0.21282,-1.04293 0.463391,-1.51 0.313521,-0.41513 0.546235,-1.02001 0.828887,-1.46763 0.199266,-0.45236 0.437523,-0.88624 0.661406,-1.32519 0.0572,-0.24379 0.110458,-0.48829 0.255103,-0.69898 0.0392,-0.0571 0.10052,-0.0974 0.136604,-0.15656 0.04467,-0.0732 0.06858,-0.15719 0.102862,-0.23578 0.04463,-0.0661 0.08927,-0.13222 0.133911,-0.19832 0.354904,-0.32464 0.551389,-0.77261 0.826138,-1.16379 0.372046,-0.32552 -0.07347,0.0914 0.278074,-0.34099 0.188098,-0.23136 0.540301,-0.19977 0.671997,-0.50048 0.569508,-0.34229 -0.229309,0.1601 0.334841,-0.27518 0.05706,-0.044 0.132813,-0.0586 0.19142,-0.10049 2.85872,-2.045475 -13.67102,0.28722 6.7701,-3.440474 5.967291,-2.691837 -19.246429,9.012364 1.707751,-0.776129 0,0 -5.804567,3.868263 -5.804567,3.868263 z"
       inkscape:connector-curvature="0" />
    <path
       style="fill:#000000;fill-opacity:1;fill-rule:nonzero;stroke:none;stroke-width:0.26458332"
       id="path4535"
       d="m 74.634502,93.233091 c 0.01812,-0.71605 -0.0028,-1.427314 0.153162,-2.129999 0.150074,-0.474824 0.315275,-0.942549 0.499591,-1.404819 0.217443,-0.559773 0.530839,-1.07683 0.816774,-1.603549 0.285483,-0.47851 0.629632,-0.92202 1.026301,-1.312942 0.398322,-0.343943 0.647215,-0.812676 0.941199,-1.240055 0.308671,-0.469516 0.66761,-0.897964 1.041554,-1.315635 0.390697,-0.416383 0.764106,-0.849582 1.195168,-1.225389 0.432199,-0.316423 0.869875,-0.626136 1.318905,-0.918506 1.530485,-0.899284 3.266281,-1.565405 4.824825,-2.302505 1.174229,-0.555341 -4.712919,2.187218 -3.533637,1.642685 4.390498,-2.027309 2.726931,-1.44984 4.521959,-2.058776 0.625795,-0.280866 1.242335,-0.537226 1.916277,-0.672788 0.724209,-0.116848 1.46114,-0.125495 2.193165,-0.135575 0.665877,-0.0067 1.331749,0.0013 1.997626,0.0028 0.747389,-0.01373 1.482243,-0.0098 2.220028,0.112067 0.590889,0.134096 1.204704,0.09576 1.792889,0.227986 0.661069,0.115178 1.300424,0.31455 1.961853,0.430586 0.563419,0.09059 1.150249,0.221588 1.634849,0.532727 0.41148,0.294921 0.83627,0.588172 1.22718,0.912215 0.28308,0.373264 0.62828,0.664668 0.9739,0.970468 0.35253,0.219625 0.60405,0.56107 0.97376,0.753409 0.42142,0.265914 0.76349,0.60979 1.06772,1.003514 0.34966,0.38477 0.65076,0.825889 0.87753,1.294291 0.13325,0.477679 0.30348,0.937538 0.49616,1.394508 0.21074,0.454652 0.36751,0.932024 0.56128,1.393277 0.11973,0.418418 0.4111,0.660072 0.71727,0.932228 0.38344,0.239675 0.85104,0.306075 1.284,0.425572 0.55134,0.254918 1.10549,0.498483 1.69717,0.643985 0.65791,0.261657 1.36171,0.341982 2.0618,0.394377 0.78339,0.04475 1.56845,0.03989 2.35279,0.04371 1.00976,-0.01111 2.01994,0.03833 3.02727,-0.03967 1.21331,-0.227444 2.44158,-0.343728 3.6629,-0.51239 1.48268,-0.218535 2.96605,-0.441216 4.44506,-0.684844 1.91922,-0.297561 3.81255,-0.715034 5.7088,-1.129068 1.84151,-0.298809 3.68352,-0.595484 5.52638,-0.887314 2.24383,-0.341641 4.38151,-1.105376 6.50268,-1.882913 3.36036,-1.185436 6.75773,-2.261949 10.12264,-3.433143 3.04709,-1.029123 6.00799,-2.270268 8.94397,-3.5761 -5.83918,2.826938 -1.82368,0.807796 -0.53696,-0.04855 0.4063,-0.276736 0.84331,-0.501097 1.26316,-0.753526 0.38452,-0.207523 0.70755,-0.507611 1.04645,-0.78038 0.44367,-0.350436 0.80894,-0.784424 1.19946,-1.190017 0.266,-0.356171 0.67242,-0.614304 0.82416,-1.043376 0.0408,-0.442513 -0.0942,-0.913696 -0.23464,-1.332849 -0.034,-0.05211 -0.0681,-0.104217 -0.10212,-0.156324 0,0 3.92267,-1.878372 3.92267,-1.878372 v 0 c 0.0456,0.08103 0.0911,0.16206 0.13667,0.243088 0.16515,0.489717 0.29989,1.019482 0.33489,1.532843 -0.0544,0.610772 -0.36437,0.843407 -0.75841,1.265708 -0.35941,0.446373 -0.78786,0.838689 -1.18231,1.253553 -0.335,0.293923 -0.68055,0.562261 -1.01024,0.856896 -0.44633,0.22701 -0.86577,0.492199 -1.30571,0.733914 -2.22458,1.420405 -4.57118,2.591965 -7.02683,3.599815 -2.88629,1.254157 -5.80437,2.425124 -8.7875,3.432884 -3.42117,1.179402 -6.86224,2.301217 -10.26456,3.535381 -2.15077,0.786802 -4.329,1.520431 -6.60415,1.854722 -1.84146,0.303122 -3.68702,0.583271 -5.52367,0.91245 -1.90383,0.413403 -3.81027,0.805719 -5.73375,1.119097 -1.49982,0.243882 -2.99779,0.503124 -4.50364,0.706901 -1.2304,0.157252 -2.45816,0.32907 -3.68759,0.49191 -1.02376,0.04554 -2.0488,0.03135 -3.07342,0.03662 -0.79454,5.29e-4 -1.59069,-7.94e-4 -2.38278,-0.07059 -0.72097,-0.07806 -1.42974,-0.212373 -2.1158,-0.454282 -0.58,-0.182959 -1.12985,-0.440753 -1.70445,-0.639006 -0.49009,-0.138853 -1.00246,-0.22887 -1.3912,-0.587115 -0.35873,-0.306573 -0.64263,-0.663202 -0.79971,-1.11547 -0.18856,-0.462026 -0.34347,-0.93744 -0.55366,-1.391283 -0.19425,-0.448929 -0.37759,-0.896831 -0.49251,-1.373394 -0.2133,-0.439684 -0.50083,-0.845886 -0.82587,-1.209757 -0.29157,-0.344781 -0.62778,-0.632756 -1.01481,-0.867066 -0.35097,-0.249907 -0.655329,-0.558059 -1.004179,-0.811916 -0.351393,-0.291573 -0.641919,-0.631177 -0.95776,-0.959591 -0.389969,-0.293216 -0.773396,-0.601982 -1.19298,-0.850839 -0.48841,-0.22271 -1.026078,-0.326969 -1.551667,-0.422799 -0.654699,-0.140663 -1.300655,-0.320759 -1.96469,-0.416282 -0.59459,-0.06517 -1.191191,-0.112906 -1.77986,-0.224748 -0.725453,-0.09283 -1.455674,-0.05528 -2.185572,-0.06047 -0.664467,-0.0021 -1.328992,-0.0024 -1.993419,0.0054 -0.717203,0.01709 -1.440696,0.03921 -2.140233,0.214545 -0.649679,0.186722 -1.257109,0.482687 -1.889792,0.718577 -0.10392,0.04341 -0.41357,0.178353 -0.311758,0.130212 1.177777,-0.556879 4.721466,-2.205466 3.539945,-1.656575 -13.623726,6.329103 2.801599,-1.273868 -1.293805,0.599202 -0.440732,0.296399 -0.891675,0.578797 -1.310992,0.903406 -0.497562,0.273072 -0.858176,0.731827 -1.227912,1.153748 -0.403355,0.369808 -0.752795,0.803849 -1.058331,1.255961 -0.335248,0.423106 -0.557387,0.906174 -0.908785,1.316866 -0.412182,0.353168 -0.763535,0.749861 -1.085665,1.187484 -0.287602,0.501793 -0.555519,1.015989 -0.821082,1.528842 -0.151444,0.472162 -0.372753,0.914945 -0.519321,1.390219 -0.259181,0.636841 -0.213821,1.328475 -0.183065,2.003477 0,0 -4.022995,1.666381 -4.022995,1.666381 z"
       inkscape:connector-curvature="0" />
    <path
       style="fill:#000000;fill-opacity:1;fill-rule:nonzero;stroke:none;stroke-width:0.26458332"
       id="path4551"
       d="m 98.672464,121.79041 c 0.618598,0.20473 1.199946,0.49756 1.829846,0.66989 0.57599,0.0882 1.12528,0.26734 1.7024,0.35512 0.70449,0.0374 1.39601,0.15388 2.0943,0.24875 0.74169,0.0969 1.49017,0.1177 2.23716,0.12966 0.69008,0.009 1.38021,0.007 2.07032,0.004 0.69762,0.0255 1.37886,0.01 2.06489,-0.11288 0.61017,-0.13535 1.24067,-0.10748 1.85121,-0.22585 0.70725,-0.15311 1.40255,-0.36366 2.09896,-0.56433 0.76198,-0.21066 1.52867,-0.39384 2.29311,-0.59526 0.12535,-0.0283 0.2531,-0.0476 0.37606,-0.0849 0.2054,-0.0625 0.39755,-0.16307 0.60117,-0.23113 0.26938,-0.0901 0.52493,-0.12868 0.78153,-0.25256 0.50367,-0.15396 0.97126,-0.3922 1.45746,-0.5913 -9.46975,4.40448 0.3685,-0.18233 0.55537,-0.26789 0.33609,-0.1539 0.2497,-0.0542 0.59393,-0.17546 0.16989,-0.0599 0.32825,-0.1488 0.49595,-0.21455 -1.21613,0.56204 -4.85127,2.27597 -3.64839,1.68611 1.36519,-0.66944 2.75254,-1.29286 4.13543,-1.92494 0.0847,-0.0387 0.34985,-0.12638 0.26562,-0.0867 -1.21581,0.57356 -2.44058,1.12794 -3.6622,1.68899 -0.0756,0.0347 0.14841,-0.0751 0.22389,-0.10989 1.37462,-0.63454 2.7509,-1.26548 4.12635,-1.89822 0.0835,-0.0192 0.17004,-0.0283 0.25056,-0.0577 0.17778,-0.0938 0.23148,-0.13096 0.42211,-0.19633 0.0751,-0.0258 0.30107,-0.0991 0.2292,-0.0652 -7.7611,3.65489 -4.71471,2.18855 -3.5069,1.6066 1.37109,-0.62976 2.74218,-1.25951 4.11328,-1.88926 0,0 -3.62193,2.41033 -3.62193,2.41033 v 0 c 1.23039,-0.57453 2.46078,-1.14905 3.69117,-1.72358 -1.71813,0.8041 -3.40256,1.69772 -5.19353,2.32499 1.22172,-0.57124 2.44343,-1.14251 3.66516,-1.71371 0.0757,-0.0354 -0.15119,0.071 -0.22692,0.1062 -1.3749,0.63905 -2.74913,1.27954 -4.12496,1.91657 -0.0828,0.0383 -0.33339,0.14825 -0.25081,0.10949 1.21068,-0.5683 4.85843,-2.23894 3.63521,-1.69814 -1.39046,0.61473 -2.75803,1.28 -4.13704,1.92 -0.26002,0.1023 -0.528,0.17866 -0.78759,0.28174 -0.0944,0.0375 -0.37145,0.16469 -0.27953,0.12143 0.86083,-0.40505 9.55638,-4.4663 -0.56473,0.2617 -0.48357,0.21645 -0.97957,0.39872 -1.47706,0.58017 -0.58741,0.16147 -1.15483,0.38691 -1.75243,0.51218 -0.76462,0.20092 -1.53371,0.38386 -2.29246,0.60702 -0.70446,0.20365 -1.41294,0.41176 -2.13889,0.52164 -0.6186,0.0665 -1.23923,0.1149 -1.85218,0.22704 -0.69674,0.085 -1.39723,0.0484 -2.09782,0.0579 -0.69123,-0.001 -1.38264,7.9e-4 -2.0737,-0.0156 -0.75273,-0.0263 -1.50642,-0.0662 -2.25215,-0.1774 -0.706034,-0.10041 -1.415257,-0.15117 -2.120851,-0.25067 -0.58021,-0.1144 -1.153758,-0.26376 -1.728004,-0.40328 -0.610794,-0.20885 -1.193009,-0.50843 -1.835084,-0.61577 0,0 3.763513,-2.20531 3.763513,-2.20531 z"
       inkscape:connector-curvature="0" />
    <path
       style="fill:#000000;fill-opacity:1;fill-rule:nonzero;stroke:none;stroke-width:0.26458332"
       id="path4555"
       d="m 77.990207,92.665252 c -0.544481,0.498317 -1.134682,0.943711 -1.70815,1.407721 -0.450773,0.391615 -0.946311,0.723871 -1.435796,1.063776 -0.523473,0.381402 -1.083786,0.707499 -1.653259,1.014373 -1.576324,0.845365 -1.04838,0.569619 -4.458603,2.079903 -0.122142,0.05409 -0.56602,0.09756 -0.69035,0.126479 -0.201669,0.04691 -0.395129,0.124042 -0.594104,0.181316 -0.558771,0.150011 -1.137885,0.175834 -1.712936,0.193072 -0.570754,0.146695 -1.153978,0.220781 -1.740472,0.263943 0,0 3.674565,-2.298841 3.674565,-2.298841 v 0 c 0.587325,-0.06611 1.164244,-0.195603 1.75254,-0.248467 0.560845,-0.03678 1.11902,-0.104124 1.657577,-0.273643 0.309372,-0.08414 0.629031,-0.138414 0.935318,-0.232566 0.107741,-0.03312 0.419216,-0.164851 0.31759,-0.116102 -1.100177,0.527749 -4.994092,2.339078 -3.290752,1.546551 0.556267,-0.31817 1.133075,-0.598496 1.663358,-0.96134 0.475314,-0.365024 1.005168,-0.655037 1.447054,-1.056796 0.583046,-0.423246 1.125789,-0.897387 1.692336,-1.342885 0,0 4.144084,-1.346494 4.144084,-1.346494 z"
       inkscape:connector-curvature="0" />
    <path
       style="fill:#000000;fill-opacity:1;fill-rule:nonzero;stroke:none;stroke-width:0.26458332"
       id="path4559"
       d="m 89.881405,87.208552 c 0.515524,0.375698 1.117666,0.557242 1.73718,0.667795 0.60221,0.138271 1.066294,0.03144 1.646671,-0.08651 1.422202,-0.776023 -0.1597,0.09299 -3.521935,1.605396 -0.0631,0.02839 0.114946,-0.07708 0.171241,-0.1173 0.173075,-0.123672 0.348364,-0.240552 0.51562,-0.372015 0.396447,-0.242337 0.777121,-0.505262 1.133552,-0.805154 0,0 4.151154,-1.291119 4.151154,-1.291119 v 0 c -0.376905,0.267865 -0.692095,0.639231 -1.121402,0.820579 -0.731055,0.464844 0.396086,-0.267872 -0.333873,0.263014 -1.381056,1.004417 -2.972998,1.900619 -4.65628,2.234626 -0.577662,0.09835 -1.150419,0.06465 -1.722446,-0.06938 -0.633626,-0.160581 -1.21998,-0.417743 -1.800645,-0.715079 0,0 3.801163,-2.134846 3.801163,-2.134846 z"
       inkscape:connector-curvature="0" />
    <path
       style="fill:#000000;fill-opacity:1;fill-rule:nonzero;stroke:none;stroke-width:0.26458332"
       id="path4561"
       d="m 155.57522,90.156928 c -8.33818,3.86134 -0.95412,0.435542 0.62246,-0.266139 0.27784,-0.123658 0.56074,-0.145716 0.85072,-0.226179 0.2658,-0.07375 0.52402,-0.172601 0.78748,-0.254328 0.7446,-0.245538 1.5,-0.406111 2.27774,-0.499771 0.69328,-0.152813 1.38486,-0.298188 2.05318,-0.539793 0.72437,-0.255473 1.3995,-0.608099 2.1421,-0.817221 0.67706,-0.236953 1.3204,-0.555074 2.00109,-0.785048 1.38037,-0.602141 1.94001,-0.849074 -3.21185,1.493049 -0.11377,0.05172 0.22254,-0.114038 0.33043,-0.177093 0.32382,-0.189249 0.62978,-0.412263 0.94105,-0.62103 0.59778,-0.432147 1.18531,-0.878221 1.78178,-1.312466 0.50817,-0.34568 0.95678,-0.760195 1.36393,-1.21793 0.3289,-0.524086 0.70178,-1.015494 1.06715,-1.514895 0.51309,-0.655357 0.96062,-1.356622 1.46741,-2.016729 0.43929,-0.566679 0.8087,-1.179467 1.27332,-1.726157 0.26975,-0.290343 0.55983,-0.560906 0.86997,-0.807204 0,0 4.1556,-1.254247 4.1556,-1.254247 v 0 c -0.3546,0.182277 -0.61844,0.443802 -0.91971,0.700791 -0.49314,0.529119 -0.89471,1.112819 -1.30247,1.709198 -0.51988,0.640384 -0.95514,1.337323 -1.45936,1.98542 -0.34122,0.52038 -0.77689,0.973355 -1.04301,1.539878 -0.3804,0.518575 -0.83435,0.947314 -1.34055,1.343491 -0.62185,0.398703 -1.19782,0.866949 -1.78541,1.31351 -1.78509,1.245262 -3.66759,2.302034 -5.79034,2.949776 -0.66405,0.268978 -1.3255,0.549622 -2.0093,0.764315 -0.72205,0.252106 -1.40297,0.606682 -2.13916,0.819957 -0.6875,0.19879 -1.38244,0.369801 -2.09135,0.474255 -0.76272,0.120674 -1.50175,0.326449 -2.23834,0.556792 -0.40541,0.123987 -0.81904,0.227354 -1.22091,0.362236 -0.13416,0.04503 -0.52513,0.210092 -0.39763,0.148696 1.33533,-0.643049 8.9092,-4.15703 -0.66387,0.292528 0,0 3.62785,-2.417662 3.62785,-2.417662 z"
       inkscape:connector-curvature="0" />
    <path
       style="fill:#000000;fill-opacity:1;fill-rule:nonzero;stroke:none;stroke-width:0.26458332"
       id="path4563"
       d="m 157.44634,96.761193 c 0.92765,0.0218 1.85573,0.01775 2.78356,0.01384 1.1022,0.09186 2.15008,-0.160621 3.19923,-0.464458 1.34502,-0.365699 2.59242,-0.991608 3.89861,-1.463513 1.39393,-0.603621 3.87702,-1.668892 -2.49635,1.168987 -0.12955,0.05769 0.24441,-0.143915 0.36618,-0.216591 0.39067,-0.23315 0.35543,-0.213696 0.74476,-0.455678 0.70302,-0.456756 1.34995,-0.991915 2.02101,-1.49316 0.81713,-0.551659 1.46792,-1.280187 2.10253,-2.024296 0.48801,-0.601205 0.93126,-1.235866 1.40428,-1.849046 0.24631,-0.337372 0.11773,-0.162859 0.3861,-0.523274 0,0 4.09817,-1.380165 4.09817,-1.380165 v 0 c -0.28477,0.324766 -0.15624,0.152715 -0.386,0.515848 -0.48855,0.619686 -0.96513,1.243134 -1.43755,1.874877 -0.62304,0.765384 -1.25515,1.536137 -2.06282,2.11632 -0.6704,0.505518 -1.32356,1.036143 -2.01255,1.513949 -0.80835,0.585657 0.0853,-0.03718 -0.73899,0.464867 -1.74716,1.064191 -3.63186,1.905429 -5.54211,2.642137 -1.29506,0.491818 -2.55878,1.073084 -3.90418,1.423543 -1.08794,0.285174 -2.17034,0.470781 -3.30077,0.392782 -0.9429,-0.004 -1.88601,-0.0074 -2.82873,0.01384 0,0 3.70562,-2.270805 3.70562,-2.270805 z"
       inkscape:connector-curvature="0" />
    <path
       style="fill:#000000;fill-opacity:1;fill-rule:nonzero;stroke:none;stroke-width:0.26458332"
       id="path4571"
       d="m 157.36004,86.407206 c 0.79583,-0.172143 1.58935,-0.329861 2.40279,-0.402209 1.19792,-0.185761 2.38872,-0.422886 3.57795,-0.660477 0.94838,-0.240943 1.863,-0.619657 2.76842,-0.989579 -6.67424,3.346802 -2.72065,1.235311 -1.26655,0.254313 0.95307,-0.71672 1.87159,-1.481048 2.77545,-2.258976 1.23808,-1.099875 2.4925,-2.181238 3.7659,-3.239984 0.93145,-0.758055 1.87945,-1.490528 2.86047,-2.182865 0,0 4.1301,-1.251945 4.1301,-1.251945 v 0 c -1.04828,0.657799 -2.02094,1.42009 -2.9968,2.179907 -1.26434,1.028584 -2.4936,2.100331 -3.69142,3.205567 -0.90175,0.783085 -1.83067,1.532949 -2.74868,2.296266 -1.96938,1.431412 -4.1379,2.442745 -6.40468,3.378126 -0.91212,0.345591 -1.81422,0.737531 -2.78128,0.905685 -1.20203,0.233063 -2.40386,0.478268 -3.61718,0.643892 -0.82558,0.113022 -1.63528,0.292648 -2.44802,0.474406 0,0 3.67353,-2.352127 3.67353,-2.352127 z"
       inkscape:connector-curvature="0" />
    <path
       style="fill:#000000;fill-opacity:1;fill-rule:nonzero;stroke:none;stroke-width:0.26458332"
       id="path4573"
       d="m 164.09145,92.799894 c 1.07375,-0.405723 2.11446,-0.897398 3.16962,-1.349709 0.23512,-0.09492 0.47185,-0.185914 0.70534,-0.28476 0.2458,-0.104053 0.48756,-0.217416 0.73234,-0.32385 0.23538,-0.102344 0.94072,-0.410925 0.7081,-0.302472 -1.04674,0.488 -2.09801,0.966282 -3.15073,1.441252 -0.21186,0.09559 0.41737,-0.204788 0.62801,-0.303046 1.47204,-0.686649 2.94666,-1.367764 4.41999,-2.051645 -6.59486,3.326513 -1.88668,0.807881 -0.45773,-0.173519 1.08707,-0.761532 2.03566,-1.695763 2.88447,-2.711466 0.65794,-0.829546 1.32455,-1.653707 1.77802,-2.61502 0.2381,-0.551164 0.48618,-1.096526 0.69794,-1.658512 0,0 4.033,-1.506775 4.033,-1.506775 v 0 c -0.20611,0.577141 -0.45176,1.135901 -0.71353,1.690044 -0.40562,1.024956 -1.0638,1.889168 -1.76726,2.732 -0.81568,1.063517 -1.78266,2.012972 -2.84812,2.826676 -2.20363,1.578465 -4.5995,2.760832 -7.12504,3.784256 1.05715,-0.495149 2.11534,-0.988086 3.17146,-1.48545 0.21076,-0.09926 -0.4246,0.1919 -0.63538,0.291116 -2.18093,1.02657 -4.33582,2.104797 -6.57227,3.005542 -1.09235,0.477896 -2.17701,0.974371 -3.28609,1.413 0,0 3.62786,-2.417662 3.62786,-2.417662 z"
       inkscape:connector-curvature="0" />
    <path
       style="fill:#000000;fill-opacity:1;fill-rule:nonzero;stroke:none;stroke-width:0.26458332"
       id="path4575"
       d="m 160.03843,100.80483 c 1.57391,-0.23926 3.13682,-0.55698 4.68553,-0.928687 2.14356,-0.404005 4.21207,-1.090996 6.25428,-1.842198 1.68389,-0.523849 6.94909,-3.000315 -0.0429,0.213201 0.933,-0.435144 1.76647,-1.039363 2.57187,-1.673082 0.65021,-0.494864 1.2435,-1.057672 1.82327,-1.631892 0,0 4.10798,-1.349301 4.10798,-1.349301 v 0 c -0.54949,0.62792 -1.20373,1.167143 -1.83924,1.704787 -0.81396,0.642453 -1.6239,1.309135 -2.56451,1.761826 -2.48412,1.165492 -4.93176,2.422967 -7.54394,3.281946 -2.04249,0.72766 -4.12019,1.34639 -6.24675,1.78074 -1.61755,0.38193 -3.24718,0.70758 -4.87968,1.01849 0,0 3.67412,-2.33583 3.67412,-2.33583 z"
       inkscape:connector-curvature="0" />
  </g>
</svg>
